# File created by Blade
# Date/Time:  Tue Apr 07 20:57:01 2015
#---------------------------------------------------------
:version 1.10
:name HOM
:units
  mass 1.0
  length 1.000000
  angle deg
:documentation
     Acclaim Skeleton File
:root
   axis xyz
   order TX TY TZ RX RY RZ
   position 0.000000 0.000000 0.000000
   orientation 0 0 0
:bonedata
   begin
      id 1
      name Spine_dum
      direction 0.000000 1.000000 0.000000
      length 4.885285
      axis 0.0 0.0 0.0 xyz
   end
   begin
      id 2
      name LeftUpLeg_dum
      direction 1.000000 0.000000 0.000000
      length 2.672193
      axis 0.0 0.0 0.0 xyz
   end
   begin
      id 3
      name RightUpLeg_dum
      direction -1.000000 0.000000 0.000000
      length 2.672193
      axis 0.0 0.0 0.0 xyz
   end
   begin
      id 4
      name Spine
      direction 0.000000 1.000000 0.000000
      length 0.000000
      axis 0.0 0.0 0.0 xyz
      dof rx ry rz
   end
   begin
      id 5
      name Spine_dum1
      direction 0.000000 1.000000 0.000000
      length 16.494159
      axis 0.0 0.0 0.0 xyz
   end
   begin
      id 6
      name Spine_dum2
      direction 0.000000 1.000000 0.000000
      length 10.663448
      axis 0.0 0.0 0.0 xyz
   end
   begin
      id 7
      name Spine_dum3
      direction 0.000000 1.000000 0.000000
      length 10.663448
      axis 0.0 0.0 0.0 xyz
   end
   begin
      id 8
      name Head
      direction 0.000000 1.000000 0.000000
      length 4.527550
      axis 0.0 0.0 0.0 xyz
      dof rx ry rz
   end
   begin
      id 9
      name LeftShoulder
      direction 1.000000 0.000000 0.000000
      length 7.531907
      axis 0.0 0.0 -90.0 xyz
      dof rx ry rz
   end
   begin
      id 10
      name LeftArm
      direction 1.000000 0.000000 0.000000
      length 10.229199
      axis 0.0 0.0 -90.0 xyz
      dof rx ry rz
   end
   begin
      id 11
      name LeftForeArm
      direction 1.000000 0.000000 0.000000
      length 8.673495
      axis 0.0 0.0 -90.0 xyz
      dof ry rz rx
   end
   begin
      id 12
      name LeftHand
      direction 0.000000 0.000000 0.000000
      length 0.000000
      axis 0.0 0.0 -90.0 xyz
      dof rx ry rz
   end
   begin
      id 13
      name LeftHand_dum1
      direction 0.000000 0.000000 0.000000
      length 0.000000
      axis 0.0 0.0 -90.0 xyz
   end
   begin
      id 14
      name LeftHand_dum2
      direction 1.000000 0.000000 0.000000
      length 3.937000
      axis 0.0 0.0 -90.0 xyz
   end
   begin
      id 15
      name LeftHandThumb1
      direction 0.000000 0.000000 1.000000
      length 3.937000
      axis 0.0 0.0 -90.0 xyz
      dof rx rz ry
   end
   begin
      id 16
      name RightShoulder
      direction -1.000000 0.000000 0.000000
      length 7.531907
      axis 0.0 0.0 90.0 xyz
      dof rx ry rz
   end
   begin
      id 17
      name RightArm
      direction -1.000000 0.000000 0.000000
      length 10.229199
      axis 0.0 0.0 90.0 xyz
      dof rx ry rz
   end
   begin
      id 18
      name RightForeArm
      direction -1.000000 0.000000 0.000000
      length 8.673495
      axis 0.0 0.0 90.0 xyz
      dof ry rz rx
   end
   begin
      id 19
      name RightHand
      direction 0.000000 0.000000 0.000000
      length 0.000000
      axis 0.0 0.0 90.0 xyz
      dof rx ry rz
   end
   begin
      id 20
      name RightHand_dum1
      direction 0.000000 0.000000 0.000000
      length 0.000000
      axis 0.0 0.0 90.0 xyz
   end
   begin
      id 21
      name RightHand_dum2
      direction -1.000000 0.000000 0.000000
      length 3.937000
      axis 0.0 0.0 90.0 xyz
   end
   begin
      id 22
      name RightHandThumb1
      direction 0.000000 0.000000 1.000000
      length 3.937000
      axis 0.0 0.0 90.0 xyz
      dof rx rz ry
   end
   begin
      id 23
      name LeftUpLeg
      direction 0.000000 -1.000000 0.000000
      length 16.263388
      axis 0.0 0.0 0.0 xyz
      dof rx ry rz
   end
   begin
      id 24
      name LeftLeg
      direction 0.000000 -1.000000 0.000000
      length 14.328163
      axis 0.0 0.0 0.0 xyz
      dof rx ry rz
   end
   begin
      id 25
      name LeftFoot
      direction 0.000000 -0.258819 0.965926
      length 5.031290
      axis 15.0 0.0 0.0 xyz
      dof rx ry rz
   end
   begin
      id 26
      name LeftToeBase
      direction 0.000000 0.000000 1.000000
      length 2.952750
      axis 0.0 0.0 0.0 xyz
      dof rx ry rz
   end
   begin
      id 27
      name RightUpLeg
      direction 0.000000 -1.000000 0.000000
      length 16.263388
      axis 0.0 0.0 0.0 xyz
      dof rx ry rz
   end
   begin
      id 28
      name RightLeg
      direction 0.000000 -1.000000 0.000000
      length 14.328163
      axis 0.0 0.0 0.0 xyz
      dof rx ry rz
   end
   begin
      id 29
      name RightFoot
      direction 0.000000 -0.258819 0.965926
      length 5.031290
      axis 15.0 0.0 0.0 xyz
      dof rx ry rz
   end
   begin
      id 30
      name RightToeBase
      direction 0.000000 0.000000 1.000000
      length 2.952750
      axis 0.0 0.0 0.0 xyz
      dof rx ry rz
   end
:hierarchy
   begin
      root Spine_dum LeftUpLeg_dum RightUpLeg_dum
      Spine_dum Spine
      LeftUpLeg_dum LeftUpLeg
      RightUpLeg_dum RightUpLeg
      Spine Spine_dum1 Spine_dum2 Spine_dum3
      Spine_dum1 Head
      Spine_dum2 LeftShoulder
      Spine_dum3 RightShoulder
      LeftShoulder LeftArm
      LeftArm LeftForeArm
      LeftForeArm LeftHand
      LeftHand LeftHand_dum1 LeftHand_dum2
      LeftHand_dum1 LeftHandThumb1
      RightShoulder RightArm
      RightArm RightForeArm
      RightForeArm RightHand
      RightHand RightHand_dum1 RightHand_dum2
      RightHand_dum1 RightHandThumb1
      LeftUpLeg LeftLeg
      LeftLeg LeftFoot
      LeftFoot LeftToeBase
      RightUpLeg RightLeg
      RightLeg RightFoot
      RightFoot RightToeBase
   end

# File created by Blade
# Date/Time:  Tue Apr 07 20:57:09 2015
# Frame Rate: 120.000 fps
#------------------------------------------------------
:FULLY-SPECIFIED
:DEGREES
107
root 0.908213 33.229800 0.549842 9.151893 -7.182508 -7.229851
Spine -5.305828 -6.108432 3.967502
Head 22.494424 -30.553852 5.770524
LeftShoulder -24.966244 45.651030 16.171407
LeftArm 55.422982 -53.288400 -69.064622
LeftForeArm 6.894479 0.000000 -2.344188
LeftHand 2.320353 0.000000 7.043256
LeftHandThumb1 -26.253704 0.000000 33.147579
RightShoulder -9.365439 0.954438 -26.019067
RightArm 16.920153 12.248309 47.657767
RightForeArm -11.856129 -0.000000 3.375629
RightHand 5.563928 0.000000 -0.735901
RightHandThumb1 -24.326973 -0.000000 -32.862282
LeftUpLeg -2.948799 -0.222241 6.296512
LeftLeg -1.874938 -0.000000 0.000000
LeftFoot -4.904630 12.722587 -12.453955
LeftToeBase -11.645180 -0.000000 0.000000
RightUpLeg -9.915091 7.883006 7.843574
RightLeg 10.022002 -0.000000 -0.000000
RightFoot -7.929699 -7.130999 12.541757
RightToeBase -1.147427 -0.000000 0.000000
108
root 0.878004 33.234480 0.517103 9.277619 -7.588612 -7.362667
Spine -5.173470 -6.189584 4.024094
Head 22.754987 -30.978974 5.795168
LeftShoulder -25.073504 45.763139 15.989577
LeftArm 55.452648 -52.925296 -69.411126
LeftForeArm 6.492744 -0.000000 -2.612964
LeftHand 2.484819 -0.000000 6.848107
LeftHandThumb1 -26.253704 0.000000 33.147579
RightShoulder -9.223437 0.933184 -25.849352
RightArm 17.054539 11.950028 48.078450
RightForeArm -11.787941 -0.000000 3.263577
RightHand 5.605390 -0.000000 -0.501338
RightHandThumb1 -24.326973 -0.000000 -32.862282
LeftUpLeg -3.064931 -0.026654 6.423608
LeftLeg -1.795877 -0.000000 0.000000
LeftFoot -4.953508 13.023321 -12.337456
LeftToeBase -11.789645 -0.000000 0.000000
RightUpLeg -10.280146 8.372558 7.835397
RightLeg 10.318156 -0.000000 -0.000000
RightFoot -7.990754 -7.085646 12.808305
RightToeBase -1.365343 -0.000000 0.000000
109
root 0.853082 33.237116 0.486404 9.400243 -7.974747 -7.481120
Spine -5.061867 -6.256844 4.093664
Head 23.038543 -31.341341 5.779724
LeftShoulder -25.087126 45.810226 15.906718
LeftArm 55.698176 -52.675073 -70.051518
LeftForeArm 6.425166 -0.000000 -2.944312
LeftHand 2.502616 0.000000 6.416833
LeftHandThumb1 -26.253704 0.000000 33.147579
RightShoulder -9.086374 0.870420 -25.693617
RightArm 17.232605 11.727887 48.478413
RightForeArm -11.720789 0.000000 3.029503
RightHand 5.678361 -0.000000 -0.398302
RightHandThumb1 -24.326973 -0.000000 -32.862282
LeftUpLeg -3.157324 0.110567 6.533978
LeftLeg -1.764106 -0.000000 0.000000
LeftFoot -4.997291 13.322648 -12.223487
LeftToeBase -11.759430 -0.000000 0.000000
RightUpLeg -10.666032 8.702734 7.827875
RightLeg 10.626671 -0.000000 -0.000000
RightFoot -8.054324 -7.113845 12.813604
RightToeBase -1.518699 -0.000000 0.000000
110
root 0.826615 33.239791 0.458550 9.506777 -8.339564 -7.562257
Spine -4.957762 -6.349612 4.131043
Head 23.344172 -31.699904 5.701561
LeftShoulder -25.198278 45.931610 15.712856
LeftArm 56.290559 -52.480035 -70.868540
LeftForeArm 6.494719 -0.000000 -3.408635
LeftHand 2.525599 0.000000 5.828076
LeftHandThumb1 -26.253704 0.000000 33.147579
RightShoulder -8.928279 0.793336 -25.563233
RightArm 17.384963 11.588674 48.890252
RightForeArm -11.714393 -0.000000 2.779971
RightHand 5.815706 -0.000000 -0.371605
RightHandThumb1 -24.326973 -0.000000 -32.862282
LeftUpLeg -3.256660 0.340490 6.604762
LeftLeg -1.694248 -0.000000 0.000000
LeftFoot -5.018273 13.504720 -12.088024
LeftToeBase -11.806602 -0.000000 0.000000
RightUpLeg -10.935210 8.998917 7.766379
RightLeg 10.664973 -0.000000 -0.000000
RightFoot -8.013312 -7.192523 12.915281
RightToeBase -1.425202 -0.000000 0.000000
111
root 0.794106 33.241228 0.434546 9.583557 -8.671910 -7.666918
Spine -4.830075 -6.424081 4.185159
Head 23.661228 -32.011892 5.632512
LeftShoulder -25.204315 45.926447 15.657942
LeftArm 56.772676 -52.253652 -71.587192
LeftForeArm 6.668502 -0.000000 -3.895391
LeftHand 2.467624 -0.000000 5.232898
LeftHandThumb1 -26.253704 0.000000 33.147579
RightShoulder -8.770320 0.667487 -25.474619
RightArm 17.475540 11.601537 49.372902
RightForeArm -11.721444 0.000000 2.606838
RightHand 5.743726 -0.000000 -0.125747
RightHandThumb1 -24.326973 -0.000000 -32.862282
LeftUpLeg -3.288432 0.485133 6.715449
LeftLeg -1.687789 -0.000000 0.000000
LeftFoot -5.052831 13.749579 -11.985186
LeftToeBase -11.842866 -0.000000 0.000000
RightUpLeg -11.108136 9.204624 7.750181
RightLeg 10.564209 -0.000000 -0.000000
RightFoot -7.921093 -7.399535 12.934210
RightToeBase -1.362150 -0.000000 0.000000
112
root 0.767636 33.240793 0.416527 9.624728 -8.964395 -7.731707
Spine -4.688072 -6.524440 4.232489
Head 23.995683 -32.318541 5.476462
LeftShoulder -25.149079 45.958842 15.638568
LeftArm 57.301481 -52.073357 -72.399613
LeftForeArm 6.956951 -0.000000 -4.347940
LeftHand 2.373030 -0.000000 4.750892
LeftHandThumb1 -26.253704 0.000000 33.147579
RightShoulder -8.685648 0.598501 -25.370478
RightArm 17.602748 11.435107 49.703902
RightForeArm -11.685120 -0.000000 2.360069
RightHand 5.713922 -0.000000 0.181518
RightHandThumb1 -24.326973 -0.000000 -32.862282
LeftUpLeg -3.305497 0.679950 6.783405
LeftLeg -1.644836 -0.000000 0.000000
LeftFoot -5.086976 13.859606 -11.863097
LeftToeBase -11.938351 -0.000000 0.000000
RightUpLeg -11.254116 9.169992 7.735874
RightLeg 10.466991 -0.000000 -0.000000
RightFoot -7.763889 -7.670868 12.817880
RightToeBase -1.456937 -0.000000 0.000000
113
root 0.737695 33.241537 0.399432 9.665141 -9.243613 -7.799854
Spine -4.568489 -6.573931 4.279013
Head 24.343234 -32.623079 5.307809
LeftShoulder -24.802497 45.901453 15.901179
LeftArm 57.314136 -51.792387 -72.855474
LeftForeArm 7.067772 -0.000000 -4.622027
LeftHand 2.061134 -0.000000 4.109512
LeftHandThumb1 -26.253704 0.000000 33.147579
RightShoulder -8.651929 0.461692 -25.233924
RightArm 17.813881 11.481517 50.051459
RightForeArm -11.918691 -0.000000 2.049000
RightHand 5.588416 -0.000000 0.303111
RightHandThumb1 -24.326973 -0.000000 -32.862282
LeftUpLeg -3.242744 0.566937 6.845683
LeftLeg -1.772783 -0.000000 0.000000
LeftFoot -5.016853 14.472990 -11.472943
LeftToeBase -12.085067 -0.000000 0.000000
RightUpLeg -11.356192 9.020084 7.736631
RightLeg 10.300530 -0.000000 -0.000000
RightFoot -7.564927 -7.908629 12.643011
RightToeBase -1.551450 -0.000000 0.000000
114
root 0.709348 33.242438 0.384910 9.691621 -9.505384 -7.812623
Spine -4.451765 -6.664144 4.278693
Head 24.675659 -32.863514 5.141043
LeftShoulder -24.595471 46.040049 15.988232
LeftArm 57.617343 -51.585082 -73.524861
LeftForeArm 7.304358 0.000000 -4.735157
LeftHand 1.752270 -0.000000 3.722655
LeftHandThumb1 -26.253704 0.000000 33.147579
RightShoulder -8.601540 0.357118 -25.140087
RightArm 17.949127 11.489051 50.392912
RightForeArm -11.821295 -0.000000 1.762272
RightHand 5.468680 -0.000000 0.333730
RightHandThumb1 -24.326973 -0.000000 -32.862282
LeftUpLeg -3.199345 0.381870 6.908917
LeftLeg -1.829294 -0.000000 0.000000
LeftFoot -5.041243 14.859475 -11.513945
LeftToeBase -12.177259 -0.000000 0.000000
RightUpLeg -11.452166 8.802988 7.694035
RightLeg 10.160398 -0.000000 -0.000000
RightFoot -7.399351 -8.087014 12.509237
RightToeBase -1.688460 -0.000000 0.000000
115
root 0.677867 33.244701 0.370529 9.731332 -9.751654 -7.850134
Spine -4.317607 -6.774062 4.308139
Head 24.877523 -33.064146 5.071164
LeftShoulder -24.995245 47.375821 15.223668
LeftArm 59.616734 -51.613985 -75.408800
LeftForeArm 7.410716 -0.000000 -4.675183
LeftHand 1.586962 -0.000000 3.526475
LeftHandThumb1 -26.253704 0.000000 33.147579
RightShoulder -8.618706 0.327714 -24.995370
RightArm 18.095656 11.495250 50.671882
RightForeArm -11.815025 -0.000000 1.526754
RightHand 5.386662 -0.000000 0.378609
RightHandThumb1 -24.326973 -0.000000 -32.862282
LeftUpLeg -3.184209 0.251555 6.986239
LeftLeg -1.856172 -0.000000 0.000000
LeftFoot -5.068542 15.234426 -11.527008
LeftToeBase -12.276646 -0.000000 0.000000
RightUpLeg -11.548534 8.450986 7.704546
RightLeg 10.043223 -0.000000 -0.000000
RightFoot -7.108862 -8.071841 12.250085
RightToeBase -1.799230 -0.000000 0.000000
116
root 0.647919 33.245214 0.357462 9.802001 -10.025036 -7.896090
Spine -4.252552 -6.837686 4.389279
Head 25.160132 -33.209501 4.841215
LeftShoulder -24.854402 47.371532 15.261956
LeftArm 59.266064 -51.043405 -75.249991
LeftForeArm 7.306402 -0.000000 -4.579377
LeftHand 1.491565 -0.000000 3.493421
LeftHandThumb1 -26.253704 0.000000 33.147579
RightShoulder -8.664764 0.322808 -24.954124
RightArm 18.187918 11.224439 50.931516
RightForeArm -11.513681 -0.000000 1.308246
RightHand 5.432676 -0.000000 0.310416
RightHandThumb1 -24.326973 -0.000000 -32.862282
LeftUpLeg -3.181158 0.216556 7.064024
LeftLeg -1.900813 -0.000000 0.000000
LeftFoot -5.098538 15.531565 -11.512754
LeftToeBase -12.336109 -0.000000 0.000000
RightUpLeg -11.759593 7.969969 7.747927
RightLeg 10.154380 -0.000000 -0.000000
RightFoot -6.966086 -7.904972 12.119887
RightToeBase -1.952221 -0.000000 0.000000
